<svg xmlns="http://www.w3.org/2000/svg" xml:space="preserve" viewBox="0 0 512 512"><path d="M250 1c4.357 0 8.714 0 13.702.408 7.036.803 13.473.912 19.836 1.658 9.659 1.132 19.429 2.014 28.865 4.224 26.996 6.322 52.567 16.224 76.491 30.579 26.992 16.196 50.058 36.76 69.465 61.249 14.602 18.427 26.367 38.715 35.144 60.73 11.763 29.507 18.76 59.849 18.541 91.724-.01 1.474.623 2.952.956 4.428 0 0 0 .5-.409.917.026 18.851-1.586 37.176-5.763 55.065-6.153 26.359-15.608 51.461-29.677 74.866-15.657 26.046-34.858 48.754-58.381 67.97-19.115 15.616-40.012 27.992-62.69 37.757-25.489 10.976-52.1 17.298-79.544 19.175-23.171 1.586-46.543.915-69.425-3.874-25.065-5.247-49.105-13.57-71.665-25.968-29.506-16.215-55.093-37.02-76.351-63.22-15.958-19.668-28.957-40.983-38.49-64.475-11.954-29.455-18.894-59.868-18.65-91.78.012-1.475-.622-2.955-.955-4.433 0-.75 0-1.5.409-2.792.406-15.806 1.677-30.91 4.484-45.967 3.968-21.278 10.528-41.681 19.672-61.202 9.974-21.295 22.708-40.85 38.327-58.554 13.52-15.325 28.277-29.15 44.99-40.954 17.546-12.393 36.205-22.595 56.31-30.18 25.44-9.597 51.613-15.588 78.88-16.387 1.984-.058 3.953-.63 5.928-.964M147 99.5v335.664h3.439c84.164 0 168.328-.028 252.492.087 4.203.005 4.98-1.604 4.967-5.308-.105-30.665-.156-61.332.045-91.996.03-4.612-1.188-5.908-5.857-5.891-47.164.173-94.33.105-141.495.105h-5.696V48.291H147V99.5z"/><path fill="#FFF" d="M1 258.469c.333 1.009.967 2.489.956 3.964-.245 31.912 6.695 62.325 18.649 91.78 9.533 23.492 22.532 44.807 38.49 64.475 21.258 26.2 46.845 47.005 76.351 63.22 22.56 12.399 46.6 20.721 71.665 25.968 22.882 4.79 46.254 5.46 69.425 3.874 27.445-1.877 54.055-8.199 79.545-19.175 22.677-9.765 43.574-22.141 62.689-37.756 23.523-19.217 42.724-41.925 58.38-67.971 14.07-23.405 23.525-48.507 29.678-74.866 4.177-17.89 5.789-36.214 5.763-54.815.409 85.13.409 170.427.409 255.778H1V258.47zM513 255.531c-.333-1.007-.966-2.485-.956-3.96.22-31.874-6.778-62.216-18.541-91.723-8.777-22.015-20.542-42.303-35.144-60.73-19.407-24.489-42.473-45.053-69.465-61.249-23.924-14.355-49.495-24.257-76.49-30.58-9.437-2.21-19.207-3.09-28.866-4.223-6.363-.746-12.8-.855-19.371-1.658C346.927 1 429.856 1 513 1v254.531zM249.531 1c-1.506.333-3.475.906-5.459.964-27.267.799-53.44 6.79-78.88 16.387-20.105 7.585-38.764 17.787-56.31 30.18-16.713 11.803-31.47 25.63-44.99 40.954-15.62 17.704-28.353 37.259-38.327 58.554-9.144 19.52-15.704 39.924-19.672 61.202-2.807 15.056-4.078 30.161-4.484 45.592C1 170.407 1 85.814 1 1h248.531z"/><path fill="#CF0" d="M147 99V48.291h107.895v283.87h5.696c47.165 0 94.33.068 141.495-.105 4.669-.017 5.887 1.279 5.857 5.891-.201 30.664-.15 61.33-.045 91.996.013 3.704-.764 5.313-4.967 5.308-84.164-.115-168.328-.087-252.492-.087H147V99z"/></svg>