<?xml version="1.0" encoding="utf-8"?>
<!-- Generator: Adobe Adobe Illustrator 24.2.0, SVG Export Plug-In . SVG Version: 6.00 Build 0)  -->
<svg version="1.1" id="Layer_1" xmlns="http://www.w3.org/2000/svg" xmlns:xlink="http://www.w3.org/1999/xlink" x="0px" y="0px"
	 viewBox="0 0 1326 1234" style="enable-background:new 0 0 1326 1234;" xml:space="preserve">
<style type="text/css">
	.st0{fill:#CCFF00;}
</style>
<g id="Layer_2">
</g>
<g>
	<path class="st0" d="M62.3,610.71C62.21,532.47,77.76,454.24,107.95,382c0.91-2.27,1.89-4.51,2.88-6.75l2.95-6.72
		c0.96-2.25,2.01-4.46,3.05-6.68l3.11-6.65c1.01-2.23,2.11-4.41,3.2-6.61l3.26-6.58c2.17-4.39,4.53-8.68,6.78-13.02
		c9.26-17.25,19.38-34.05,30.3-50.31c21.84-32.53,46.92-62.91,74.73-90.57c27.84-27.63,58.22-52.75,90.85-74.63
		c32.61-21.9,67.4-40.62,103.7-55.8c36.3-15.18,74.09-26.92,112.71-34.84c38.62-7.94,78.04-12.1,117.53-12.53
		c78.97-0.81,158.34,13.58,232.04,42.96c36.85,14.67,72.28,32.97,105.63,54.54c33.35,21.58,64.67,46.38,93.15,74.17
		c28.51,27.74,54.34,58.29,76.9,91.11c22.56,32.82,41.98,67.87,57.52,104.6c15.57,36.71,27.55,74.98,35.42,114.1
		c7.9,39.11,11.88,79.01,11.92,118.9c-0.06,39.89-4.02,79.79-11.93,118.9c-7.92,39.11-19.86,77.39-35.44,114.09
		c-31.22,73.42-77.41,140.24-134.44,195.69c-57.04,55.49-125.1,99.34-198.77,128.68c-36.84,14.67-75.12,25.61-114.04,32.8
		c-38.92,7.18-78.49,10.54-117.98,10.16c-39.49-0.42-78.91-4.59-117.52-12.52c-38.62-7.91-76.4-19.65-112.71-34.82
		c-36.3-15.18-71.08-33.9-103.7-55.79c-32.63-21.88-63.02-46.98-90.86-74.61c-27.81-27.66-52.89-58.03-74.73-90.56
		c-10.92-16.26-21.04-33.06-30.3-50.31c-9.24-17.26-17.68-34.95-25.23-53C77.76,767.18,62.21,688.94,62.3,610.71z M63.7,610.71
		c0.03,39.02,3.89,78.04,11.6,116.29c7.7,38.25,19.25,75.72,34.41,111.67C140,910.6,184.8,976.33,240.48,1030.99
		c55.62,54.73,122.01,98.45,194.26,127.87c36.12,14.73,73.68,25.91,111.96,33.35c38.29,7.45,77.29,11.15,116.29,11.16
		c39-0.04,78-3.77,116.28-11.24c38.28-7.47,75.82-18.67,111.91-33.42c72.21-29.46,138.54-73.22,194.08-127.96
		c55.61-54.67,100.32-120.39,130.53-192.27c15.12-35.93,26.63-73.37,34.3-111.59c7.67-38.22,11.49-77.2,11.5-116.17
		c-0.01-38.98-3.83-77.96-11.5-116.17c-7.66-38.22-19.17-75.66-34.3-111.59c-30.21-71.88-74.93-137.6-130.53-192.27
		c-55.54-54.74-121.87-98.49-194.08-127.96c-36.1-14.75-73.64-25.96-111.91-33.42C741,21.82,702,18.09,663,18.05
		c-39,0.01-78.01,3.71-116.29,11.16c-38.29,7.44-75.85,18.62-111.96,33.35C362.49,91.97,296.1,135.7,240.48,190.42
		C184.8,245.09,140,310.82,109.71,382.74C94.55,418.69,83,456.16,75.3,494.41C67.59,532.66,63.73,571.69,63.7,610.71z"/>
</g>
<g>
	<g>
		<path class="st0" d="M274.12,157.04c17.53,81.96,50.84,160.43,97.91,229.81c44.85,66.11,102.29,124.24,169.87,167.12
			c36.38,23.08,75.62,41.57,116.82,54.24c1.21,0.37,3.66-1.23,4.71-1.74c0.54-0.26,4-2.73,4.27-2.64
			c-74.1-22.79-141.4-64.41-197.89-117.19c-59.84-55.92-107.87-124.22-141.91-198.62c-19.82-43.32-34.84-88.77-44.8-135.35
			C283.12,152.71,273.81,155.57,274.12,157.04L274.12,157.04z"/>
	</g>
</g>
<g>
	<g>
		<path class="st0" d="M656.19,608.21c39.55,81.01,52.98,174.17,39.19,263.19c-12.82,82.73-50.2,160.71-106.37,222.76
			c-30.51,33.71-66.38,62.57-106.34,84.31c-1.01,0.55-2.65,1.09-1.31,1.4c1.37,0.32,5.07-2.21,6.23-2.84
			c71.28-38.79,130.07-98.48,169.05-169.57c42.61-77.71,59.7-167.58,50.59-255.62c-5.31-51.32-19.39-101.63-42.04-148.01
			C664.86,603.16,655.86,607.53,656.19,608.21L656.19,608.21z"/>
	</g>
</g>
<g>
	<g>
		<path class="st0" d="M335.06,316.81c34.86-29.87,71.93-57.14,110.87-81.47c38.36-23.96,78.5-45.07,119.98-63.08
			c41.14-17.85,83.6-32.66,126.94-44.18c43.07-11.45,87.01-19.65,131.33-24.41c44.2-4.74,88.77-6.05,133.16-3.78
			c5.57,0.29,11.14,0.63,16.71,1.03c-0.08-0.01,0.16-4.99,0-5c-44.52-3.16-89.27-2.75-133.73,1.17
			c-44.38,3.92-88.44,11.3-131.69,21.95c-43.51,10.71-86.19,24.73-127.61,41.82c-41.76,17.23-82.23,37.59-120.97,60.83
			c-39.15,23.48-76.55,49.9-111.76,78.97c-4.45,3.67-8.86,7.39-13.25,11.15C334.22,312.54,335.86,316.13,335.06,316.81
			L335.06,316.81z"/>
	</g>
</g>
<g>
	<g>
		<path class="st0" d="M460.65,486.91c34.41-34.22,72.14-65.04,112.39-92.16c40.4-27.23,83.3-50.74,127.88-70.39
			c44.88-19.78,91.48-35.66,139.08-47.46c47.93-11.88,96.89-19.64,146.16-23.03c49.12-3.39,98.55-2.43,147.47,3.11
			c6.01,0.68,12,1.43,17.99,2.25c-0.19-0.03,0.26-4.96,0-5c-48.98-6.66-98.55-8.74-147.93-6.38c-49.15,2.35-98.09,9.06-146.09,19.89
			c-47.87,10.8-94.82,25.71-140.13,44.54c-45.2,18.79-88.78,41.49-129.96,67.95c-40.7,26.15-79.04,56-114.14,89.31
			c-4.29,4.07-8.53,8.2-12.72,12.37C459.8,482.75,461.46,486.1,460.65,486.91L460.65,486.91z"/>
	</g>
</g>
<g>
	<g>
		<path class="st0" d="M870.2,501.19c15.58,47.64,25.52,97.03,29.88,146.96c4.34,49.71,3.22,99.88-3.05,149.39
			c-6.3,49.77-17.8,98.89-34.25,146.29c-16.45,47.38-37.86,93.05-64.06,135.83c-25.98,42.42-56.66,81.99-91.67,117.35
			c-4.35,4.4-8.78,8.72-13.26,12.99c-0.37,0.36,3.09-0.83,3.41-0.98c1.77-0.79,3.94-1.65,5.38-3.01
			c36.03-34.33,67.85-72.92,95-114.62c27.16-41.71,49.66-86.44,67.3-132.97c17.78-46.9,30.63-95.67,38.32-145.23
			c7.69-49.56,10.23-99.95,7.28-150.02c-2.95-50.25-11.44-100.2-25.72-148.48c-1.77-5.98-3.63-11.94-5.57-17.87
			C879.1,496.53,869.83,500.07,870.2,501.19L870.2,501.19z"/>
	</g>
</g>
<g>
	<g>
		<path class="st0" d="M1084.99,453.36c22.7,80.47,33.87,164.03,33.54,247.63c-0.33,83.28-12.02,166.54-34.8,246.65
			c-12.88,45.27-29.33,89.48-49.19,132.14c0.1-0.22,4.17-1.48,4.71-1.74c1.16-0.57,3.68-1.37,4.27-2.64
			c35.29-75.81,59.69-156.51,72.74-239.09c13-82.26,14.79-166.31,5.12-249.04c-5.47-46.74-14.63-93-27.41-138.29
			C1093.93,448.82,1084.63,452.1,1084.99,453.36L1084.99,453.36z"/>
	</g>
</g>
<g>
	<g>
		<path class="st0" d="M662.3,609.51c65.07-45.99,136.76-82.17,212.16-107.88c75.23-25.65,154.03-40.8,233.41-44.94
			c45.19-2.36,90.53-1,135.51,3.97c4.67,0.52,9.15-8.15,3.43-8.78c-80.39-8.89-162-6.1-241.65,7.85
			c-79.46,13.92-157.09,38.77-229.64,74.05c-40.59,19.74-79.58,42.68-116.45,68.74C654.46,605.78,656.93,613.31,662.3,609.51
			L662.3,609.51z"/>
	</g>
</g>
<g>
	<g>
		<path class="st0" d="M93.98,424.42c23.96,44.45,51.94,86.69,83.38,126.2c31.3,39.34,65.99,75.98,103.46,109.5
			c37.55,33.59,77.9,64.06,120.47,91.01c42.62,26.98,87.48,50.43,134,69.94c46.84,19.65,95.37,35.29,144.92,46.49
			c5.98,1.35,11.97,2.63,17.98,3.86c-0.29-0.06,0.36-4.93,0-5c-49.79-10.15-98.65-24.74-145.91-43.43
			c-46.91-18.55-92.24-41.09-135.4-67.21c-43.11-26.1-84.07-55.76-122.3-88.59c-38.15-32.76-73.58-68.7-105.7-107.39
			c-32.25-38.85-61.16-80.48-86.07-124.4c-3-5.29-5.94-10.62-8.83-15.97C94.67,420.7,93.28,423.12,93.98,424.42L93.98,424.42z"/>
	</g>
</g>
<g>
	<g>
		<path class="st0" d="M74.37,728.76c24.84,33.79,52.43,65.53,82.32,94.95c30.18,29.71,62.67,57.05,96.98,81.86
			c34.52,24.96,70.9,47.36,108.69,67.02c38.08,19.81,77.59,36.85,118.14,50.93c40.92,14.21,82.89,25.41,125.46,33.38
			c5.28,0.99,10.58,1.93,15.88,2.82c-0.24-0.04,0.31-4.95,0-5c-42.75-7.2-84.94-17.6-126.14-31.08
			c-40.96-13.4-80.94-29.8-119.52-49.02c-38.17-19.02-74.97-40.79-109.97-65.16c-34.68-24.14-67.59-50.83-98.27-79.89
			c-30.48-28.87-58.74-60.08-84.27-93.41c-3.14-4.1-6.24-8.24-9.3-12.41C75.15,724.83,73.56,727.66,74.37,728.76L74.37,728.76z"/>
	</g>
</g>
</svg>
